<svg version="1.1" viewBox="0.0 0.0 960.0 960.0" fill="none" stroke="none" stroke-linecap="square" stroke-miterlimit="10" xmlns:xlink="http://www.w3.org/1999/xlink" xmlns="http://www.w3.org/2000/svg"><clipPath id="p.0"><path d="m0 0l960.0 0l0 960.0l-960.0 0l0 -960.0z" clip-rule="nonzero"/></clipPath><g clip-path="url(#p.0)"><path fill="#000000" fill-opacity="0.0" d="m0 0l960.0 0l0 960.0l-960.0 0z" fill-rule="evenodd"/><path fill="#93c47d" d="m48.0 48.0l864.0 0l0 864.0l-864.0 0z" fill-rule="evenodd"/><path fill="#000000" d="m470.10703 278.40024l-134.10828 67.78226c27.439026 34.515564 42.41617 72.43729 44.931427 113.76514l42.873474 -14.646393c-3.887207 -41.554962 -18.178345 -76.070526 -42.873474 -103.54675l63.10977 -32.01773c18.521332 21.799316 34.756104 46.55063 48.704254 74.25391c13.948181 27.703278 20.922241 48.82138 20.922241 63.354248l-90.54877 190.40338l14.748474 5.449829l121.417725 -203.0061c0 -17.030731 -10.060974 -44.279846 -30.182922 -81.74744c-20.121979 -37.46756 -39.78662 -64.14902 -58.993927 -80.04434z" fill-rule="evenodd"/><path stroke="#000000" stroke-width="1.0" stroke-linejoin="round" stroke-linecap="butt" d="m470.10703 278.40024l-134.10828 67.78226c27.439026 34.515564 42.41617 72.43729 44.931427 113.76514l42.873474 -14.646393c-3.887207 -41.554962 -18.178345 -76.070526 -42.873474 -103.54675l63.10977 -32.01773c18.521332 21.799316 34.756104 46.55063 48.704254 74.25391c13.948181 27.703278 20.922241 48.82138 20.922241 63.354248l-90.54877 190.40338l14.748474 5.449829l121.417725 -203.0061c0 -17.030731 -10.060974 -44.279846 -30.182922 -81.74744c-20.121979 -37.46756 -39.78662 -64.14902 -58.993927 -80.04434z" fill-rule="evenodd"/></g></svg>