<svg version="1.1" viewBox="0.0 0.0 960.0 960.0" fill="none" stroke="none" stroke-linecap="square" stroke-miterlimit="10" xmlns:xlink="http://www.w3.org/1999/xlink" xmlns="http://www.w3.org/2000/svg"><clipPath id="p.0"><path d="m0 0l960.0 0l0 960.0l-960.0 0l0 -960.0z" clip-rule="nonzero"/></clipPath><g clip-path="url(#p.0)"><path fill="#000000" fill-opacity="0.0" d="m0 0l960.0 0l0 960.0l-960.0 0z" fill-rule="evenodd"/><path fill="#93c47d" d="m48.0 48.0l864.0 0l0 864.0l-864.0 0z" fill-rule="evenodd"/><path fill="#000000" d="m540.28613 355.6941c17.378052 0 31.097595 4.7307434 41.15857 14.192261c10.060974 9.385773 15.091431 20.096222 15.091431 32.131256c0 11.1267395 -3.7728271 20.43686 -11.3185425 27.93039c-18.292725 -1.5895386 -36.24243 -2.3843079 -53.84912 -2.3843079c-42.530487 0 -87.347565 4.200897 -134.45123 12.602722c32.69818 -56.31488 80.48782 -84.47232 143.3689 -84.47232zm-2.7438965 -34.742676c-76.829254 0 -133.53659 41.668488 -170.12195 125.00543c-55.564056 11.580902 -102.09607 25.205475 -139.59607 40.87372l7.5457306 11.240265c26.753067 -12.035034 68.25459 -23.161774 124.50459 -33.380188l0 0c-17.149384 47.458893 -26.753052 105.59042 -28.810974 174.3945l15.434448 0c6.173767 -75.616394 19.550293 -135.11032 40.129578 -178.48187c52.59146 -7.9476624 100.83844 -11.921509 144.74088 -11.921509c10.975586 0 18.864319 0.2270813 23.666138 0.6812439c-1.8292236 0.9082947 -3.4298706 1.5895386 -4.801819 2.0436707c-32.469482 13.624573 -52.89633 23.578064 -61.280487 29.860535c-8.307922 6.206726 -12.461884 13.738098 -12.461884 22.594055c0 13.624573 9.184448 26.302979 27.553345 38.03528c18.44513 11.656555 40.358215 17.484863 65.73932 17.484863c31.78357 0 58.079285 -15.554749 78.88721 -46.664185l-12.004578 -8.855957c-16.006042 27.249146 -37.842957 40.87372 -65.51068 40.87372c-13.033508 0 -24.237793 -3.6332397 -33.612793 -10.899658c-9.375 -7.2664185 -14.0625 -16.349487 -14.0625 -27.249146c0 -8.628876 2.5152588 -15.327637 7.5457153 -20.096222c5.0305176 -4.7686157 18.178406 -11.580902 39.443604 -20.43686c11.890259 -4.9956665 21.493958 -9.650757 28.811035 -13.965179c40.243896 4.768585 71.45575 11.467346 93.63568 20.096222c0 3.4061584 -2.7058105 6.7744446 -8.117432 10.104889c-5.335327 3.2547607 -12.461853 5.1092224 -21.379517 5.563385l6.173767 7.4934998c11.432922 0 24.69513 -3.1790771 39.78656 -9.537201c15.091492 -6.358124 22.637207 -14.078705 22.637207 -23.161774c-29.954285 -13.851624 -65.51068 -23.388824 -106.66919 -28.611572c11.66156 -12.2621155 17.49237 -26.227295 17.49237 -41.89557c0 -18.84732 -8.9938965 -35.42389 -26.98175 -49.729675c-17.91156 -14.305786 -44.016724 -21.45871 -78.31555 -21.45871z" fill-rule="evenodd"/><path stroke="#000000" stroke-width="1.0" stroke-linejoin="round" stroke-linecap="butt" d="m540.28613 355.6941c17.378052 0 31.097595 4.7307434 41.15857 14.192261c10.060974 9.385773 15.091431 20.096222 15.091431 32.131256c0 11.1267395 -3.7728271 20.43686 -11.3185425 27.93039c-18.292725 -1.5895386 -36.24243 -2.3843079 -53.84912 -2.3843079c-42.530487 0 -87.347565 4.200897 -134.45123 12.602722c32.69818 -56.31488 80.48782 -84.47232 143.3689 -84.47232zm-2.7438965 -34.742676c-76.829254 0 -133.53659 41.668488 -170.12195 125.00543c-55.564056 11.580902 -102.09607 25.205475 -139.59607 40.87372l7.5457306 11.240265c26.753067 -12.035034 68.25459 -23.161774 124.50459 -33.380188l0 0c-17.149384 47.458893 -26.753052 105.59042 -28.810974 174.3945l15.434448 0c6.173767 -75.616394 19.550293 -135.11032 40.129578 -178.48187c52.59146 -7.9476624 100.83844 -11.921509 144.74088 -11.921509c10.975586 0 18.864319 0.2270813 23.666138 0.6812439c-1.8292236 0.9082947 -3.4298706 1.5895386 -4.801819 2.0436707c-32.469482 13.624573 -52.89633 23.578064 -61.280487 29.860535c-8.307922 6.206726 -12.461884 13.738098 -12.461884 22.594055c0 13.624573 9.184448 26.302979 27.553345 38.03528c18.44513 11.656555 40.358215 17.484863 65.73932 17.484863c31.78357 0 58.079285 -15.554749 78.88721 -46.664185l-12.004578 -8.855957c-16.006042 27.249146 -37.842957 40.87372 -65.51068 40.87372c-13.033508 0 -24.237793 -3.6332397 -33.612793 -10.899658c-9.375 -7.2664185 -14.0625 -16.349487 -14.0625 -27.249146c0 -8.628876 2.5152588 -15.327637 7.5457153 -20.096222c5.0305176 -4.7686157 18.178406 -11.580902 39.443604 -20.43686c11.890259 -4.9956665 21.493958 -9.650757 28.811035 -13.965179c40.243896 4.768585 71.45575 11.467346 93.63568 20.096222c0 3.4061584 -2.7058105 6.7744446 -8.117432 10.104889c-5.335327 3.2547607 -12.461853 5.1092224 -21.379517 5.563385l6.173767 7.4934998c11.432922 0 24.69513 -3.1790771 39.78656 -9.537201c15.091492 -6.358124 22.637207 -14.078705 22.637207 -23.161774c-29.954285 -13.851624 -65.51068 -23.388824 -106.66919 -28.611572c11.66156 -12.2621155 17.49237 -26.227295 17.49237 -41.89557c0 -18.84732 -8.9938965 -35.42389 -26.98175 -49.729675c-17.91156 -14.305786 -44.016724 -21.45871 -78.31555 -21.45871z" fill-rule="evenodd"/></g></svg>