<svg version="1.1" viewBox="0.0 0.0 960.0 960.0" fill="none" stroke="none" stroke-linecap="square" stroke-miterlimit="10" xmlns:xlink="http://www.w3.org/1999/xlink" xmlns="http://www.w3.org/2000/svg"><clipPath id="p.0"><path d="m0 0l960.0 0l0 960.0l-960.0 0l0 -960.0z" clip-rule="nonzero"/></clipPath><g clip-path="url(#p.0)"><path fill="#000000" fill-opacity="0.0" d="m0 0l960.0 0l0 960.0l-960.0 0z" fill-rule="evenodd"/><path fill="#6d9eeb" d="m48.0 48.0l864.0 0l0 864.0l-864.0 0z" fill-rule="evenodd"/><path fill="#000000" d="m405.16245 295.4908c-31.326202 0 -56.44055 12.375641 -75.34299 37.126953c-18.826233 24.751312 -28.239319 56.769043 -28.239319 96.05322c0 47.231842 17.835358 91.17105 53.506104 131.81772l12.690552 -9.877808c-26.753052 -35.42389 -40.12961 -73.799774 -40.12961 -115.127625c0 -24.070099 6.66922 -44.16632 20.00763 -60.288727c13.414642 -16.122406 30.182953 -24.183624 50.3049 -24.183624l144.05487 0c18.75 20.209778 28.125 43.030945 28.125 68.46347c0 45.869385 -17.835327 80.27142 -53.506104 103.20615c-27.210358 -12.035065 -55.10669 -18.052582 -83.689026 -18.052582l-14.0625 55.86075c45.274414 0 87.69058 9.045166 127.248535 27.13556c39.557922 18.01471 72.59906 43.598633 99.123474 76.75177l13.376526 -8.515381c-40.701233 -59.266846 -82.88873 -100.82178 -126.5625 -124.664795c38.41461 -26.794983 57.62195 -63.58133 57.62195 -110.35901c0 -25.205444 -4.6875 -48.480774 -14.0625 -69.82593l14.0625 -55.52011z" fill-rule="evenodd"/><path stroke="#000000" stroke-width="1.0" stroke-linejoin="round" stroke-linecap="butt" d="m405.16245 295.4908c-31.326202 0 -56.44055 12.375641 -75.34299 37.126953c-18.826233 24.751312 -28.239319 56.769043 -28.239319 96.05322c0 47.231842 17.835358 91.17105 53.506104 131.81772l12.690552 -9.877808c-26.753052 -35.42389 -40.12961 -73.799774 -40.12961 -115.127625c0 -24.070099 6.66922 -44.16632 20.00763 -60.288727c13.414642 -16.122406 30.182953 -24.183624 50.3049 -24.183624l144.05487 0c18.75 20.209778 28.125 43.030945 28.125 68.46347c0 45.869385 -17.835327 80.27142 -53.506104 103.20615c-27.210358 -12.035065 -55.10669 -18.052582 -83.689026 -18.052582l-14.0625 55.86075c45.274414 0 87.69058 9.045166 127.248535 27.13556c39.557922 18.01471 72.59906 43.598633 99.123474 76.75177l13.376526 -8.515381c-40.701233 -59.266846 -82.88873 -100.82178 -126.5625 -124.664795c38.41461 -26.794983 57.62195 -63.58133 57.62195 -110.35901c0 -25.205444 -4.6875 -48.480774 -14.0625 -69.82593l14.0625 -55.52011z" fill-rule="evenodd"/></g></svg>