<svg version="1.1" viewBox="0.0 0.0 960.0 960.0" fill="none" stroke="none" stroke-linecap="square" stroke-miterlimit="10" xmlns:xlink="http://www.w3.org/1999/xlink" xmlns="http://www.w3.org/2000/svg"><clipPath id="p.0"><path d="m0 0l960.0 0l0 960.0l-960.0 0l0 -960.0z" clip-rule="nonzero"/></clipPath><g clip-path="url(#p.0)"><path fill="#000000" fill-opacity="0.0" d="m0 0l960.0 0l0 960.0l-960.0 0z" fill-rule="evenodd"/><path fill="#6d9eeb" d="m48.0 48.0l864.0 0l0 864.0l-864.0 0z" fill-rule="evenodd"/><path fill="#000000" d="m545.01086 259.10004c22.408508 0 38.64331 4.04953 48.704285 12.14859c10.060974 8.023346 15.091431 27.022064 15.091431 56.996124c0 53.817047 -21.951233 80.725555 -65.85364 80.725555c-18.064026 0 -32.431427 -6.2445984 -43.102173 -18.733765c-10.594513 -12.489197 -15.891754 -30.428223 -15.891754 -53.817047c0 -51.546295 20.350616 -77.31946 61.05185 -77.31946zm-0.6859741 -19.414993c-29.26831 0 -53.696686 9.158722 -73.285095 27.476212c-19.512207 18.24179 -29.26828 42.236176 -29.26828 71.983154l0 127.0491c-41.844513 -39.51126 -85.17532 -59.266876 -129.9924 -59.266876l-14.0625 55.860718c41.615845 0 76.06708 5.3363037 103.35367 16.00888c27.362793 10.672577 52.362823 27.476227 75.0 50.41092l11.3186035 -11.240295c-9.375 -12.489166 -18.064026 -22.934662 -26.067078 -31.336487l0 -90.944c19.435974 21.572235 46.189026 32.358337 80.259186 32.358337c29.26825 0 52.82013 -11.467346 70.65546 -34.40204l14.0625 326.64908l15.434448 0l20.579285 -480.6067l-56.25 0l0.6859741 15.327637c-14.405457 -10.21843 -35.21344 -15.327637 -62.423767 -15.327637z" fill-rule="evenodd"/><path stroke="#000000" stroke-width="1.0" stroke-linejoin="round" stroke-linecap="butt" d="m545.01086 259.10004c22.408508 0 38.64331 4.04953 48.704285 12.14859c10.060974 8.023346 15.091431 27.022064 15.091431 56.996124c0 53.817047 -21.951233 80.725555 -65.85364 80.725555c-18.064026 0 -32.431427 -6.2445984 -43.102173 -18.733765c-10.594513 -12.489197 -15.891754 -30.428223 -15.891754 -53.817047c0 -51.546295 20.350616 -77.31946 61.05185 -77.31946zm-0.6859741 -19.414993c-29.26831 0 -53.696686 9.158722 -73.285095 27.476212c-19.512207 18.24179 -29.26828 42.236176 -29.26828 71.983154l0 127.0491c-41.844513 -39.51126 -85.17532 -59.266876 -129.9924 -59.266876l-14.0625 55.860718c41.615845 0 76.06708 5.3363037 103.35367 16.00888c27.362793 10.672577 52.362823 27.476227 75.0 50.41092l11.3186035 -11.240295c-9.375 -12.489166 -18.064026 -22.934662 -26.067078 -31.336487l0 -90.944c19.435974 21.572235 46.189026 32.358337 80.259186 32.358337c29.26825 0 52.82013 -11.467346 70.65546 -34.40204l14.0625 326.64908l15.434448 0l20.579285 -480.6067l-56.25 0l0.6859741 15.327637c-14.405457 -10.21843 -35.21344 -15.327637 -62.423767 -15.327637z" fill-rule="evenodd"/></g></svg>