<svg version="1.1" viewBox="0.0 0.0 960.0 960.0" fill="none" stroke="none" stroke-linecap="square" stroke-miterlimit="10" xmlns:xlink="http://www.w3.org/1999/xlink" xmlns="http://www.w3.org/2000/svg"><clipPath id="p.0"><path d="m0 0l960.0 0l0 960.0l-960.0 0l0 -960.0z" clip-rule="nonzero"/></clipPath><g clip-path="url(#p.0)"><path fill="#000000" fill-opacity="0.0" d="m0 0l960.0 0l0 960.0l-960.0 0z" fill-rule="evenodd"/><path fill="#e06666" d="m48.0 48.0l864.0 0l0 864.0l-864.0 0z" fill-rule="evenodd"/><path fill="#000000" d="m316.34604 302.46588l-14.0625 55.52011l26.067078 0c-13.948181 35.42389 -20.922272 69.93945 -20.922272 103.54672c0 26.11377 6.897888 46.664154 20.693604 61.651184c13.871979 14.987061 32.92685 22.48053 57.164642 22.48053c27.896362 0 50.3049 -6.623047 67.22562 -19.86914c16.920746 -13.321777 25.381104 -30.655273 25.381104 -52.000458c0 -16.122406 -4.1920776 -30.541718 -12.576202 -43.257996c-8.307953 -12.716278 -20.236298 -21.45871 -35.785065 -26.227295l16.120422 -46.323547l18.521332 0c12.804901 13.397491 25.41922 29.97406 37.842987 49.729675c12.5 19.755646 24.618896 41.971252 36.35675 66.64685c11.814026 24.599945 26.219482 57.790924 43.21643 99.57291c17.073181 41.782043 25.724121 64.83026 25.952759 69.144714l0.34301758 14.305786l15.434448 0l20.579224 -299.39993l14.0625 -55.52011l-63.452698 0l-13.719543 55.52011l20.922241 0l4.1158447 226.84909c-34.07007 -112.40271 -62.881104 -188.01907 -86.43292 -226.84909l14.0625 -55.52011l-105.29727 0l-14.0625 55.52011l14.748505 0l-31.554901 88.219086c21.03659 0 37.042694 2.4978333 48.01831 7.4935303c10.975616 4.9956665 16.46341 11.240265 16.46341 18.733765c0 9.083069 -6.8216553 16.652283 -20.464935 22.707642c-13.567078 5.9796753 -32.92685 8.969482 -58.079285 8.969482c-19.435974 0 -34.26068 -4.087372 -44.47409 -12.262085c-10.1371765 -8.174744 -15.20578 -19.074402 -15.20578 -32.698975c0 -16.576569 3.3536377 -35.42389 10.060974 -56.54196c6.783539 -21.118103 15.091461 -35.991577 24.923767 -44.620483l21.265259 0l14.0625 -55.52011z" fill-rule="evenodd"/><path stroke="#000000" stroke-width="1.0" stroke-linejoin="round" stroke-linecap="butt" d="m316.34604 302.46588l-14.0625 55.52011l26.067078 0c-13.948181 35.42389 -20.922272 69.93945 -20.922272 103.54672c0 26.11377 6.897888 46.664154 20.693604 61.651184c13.871979 14.987061 32.92685 22.48053 57.164642 22.48053c27.896362 0 50.3049 -6.623047 67.22562 -19.86914c16.920746 -13.321777 25.381104 -30.655273 25.381104 -52.000458c0 -16.122406 -4.1920776 -30.541718 -12.576202 -43.257996c-8.307953 -12.716278 -20.236298 -21.45871 -35.785065 -26.227295l16.120422 -46.323547l18.521332 0c12.804901 13.397491 25.41922 29.97406 37.842987 49.729675c12.5 19.755646 24.618896 41.971252 36.35675 66.64685c11.814026 24.599945 26.219482 57.790924 43.21643 99.57291c17.073181 41.782043 25.724121 64.83026 25.952759 69.144714l0.34301758 14.305786l15.434448 0l20.579224 -299.39993l14.0625 -55.52011l-63.452698 0l-13.719543 55.52011l20.922241 0l4.1158447 226.84909c-34.07007 -112.40271 -62.881104 -188.01907 -86.43292 -226.84909l14.0625 -55.52011l-105.29727 0l-14.0625 55.52011l14.748505 0l-31.554901 88.219086c21.03659 0 37.042694 2.4978333 48.01831 7.4935303c10.975616 4.9956665 16.46341 11.240265 16.46341 18.733765c0 9.083069 -6.8216553 16.652283 -20.464935 22.707642c-13.567078 5.9796753 -32.92685 8.969482 -58.079285 8.969482c-19.435974 0 -34.26068 -4.087372 -44.47409 -12.262085c-10.1371765 -8.174744 -15.20578 -19.074402 -15.20578 -32.698975c0 -16.576569 3.3536377 -35.42389 10.060974 -56.54196c6.783539 -21.118103 15.091461 -35.991577 24.923767 -44.620483l21.265259 0l14.0625 -55.52011z" fill-rule="evenodd"/></g></svg>