<svg version="1.1" viewBox="0.0 0.0 960.0 960.0" fill="none" stroke="none" stroke-linecap="square" stroke-miterlimit="10" xmlns:xlink="http://www.w3.org/1999/xlink" xmlns="http://www.w3.org/2000/svg"><clipPath id="p.0"><path d="m0 0l960.0 0l0 960.0l-960.0 0l0 -960.0z" clip-rule="nonzero"/></clipPath><g clip-path="url(#p.0)"><path fill="#000000" fill-opacity="0.0" d="m0 0l960.0 0l0 960.0l-960.0 0z" fill-rule="evenodd"/><path fill="#e06666" d="m48.0 48.0l864.0 0l0 864.0l-864.0 0z" fill-rule="evenodd"/><path fill="#000000" d="m503.83096 413.397c31.326202 0 55.907013 11.807953 73.7424 35.42386c-11.890259 41.32788 -36.699707 61.99179 -74.428375 61.99179c-14.176849 0 -26.638733 -4.541504 -37.38568 -13.624573c-10.746948 -9.083038 -16.120422 -21.004517 -16.120422 -35.764496c0 -14.305786 4.8399353 -25.886658 14.519806 -34.742645c9.7561035 -8.855957 22.980194 -13.283936 39.67227 -13.283936zm-61.05185 -173.71327c-39.78659 0 -71.64633 15.327637 -95.579285 45.982925c-23.85669 30.655273 -35.785065 74.36743 -35.785065 131.13647c0 59.039795 25.038116 118.30667 75.11435 177.80063l12.690552 -9.877808c-41.15854 -50.638 -61.737823 -106.61224 -61.737823 -167.92282c0 -38.830017 8.803345 -68.80408 26.410065 -89.92215c17.60672 -21.118103 41.501526 -31.677124 71.68448 -31.677124l123.1326 0c17.835388 26.794983 26.753052 56.201324 26.753052 88.219086c-18.521301 -17.257782 -44.131104 -25.886688 -76.829254 -25.886688c-27.667694 0 -48.932922 8.51535 -63.795746 25.546082c-14.862793 17.0307 -22.29419 39.170624 -22.29419 66.41977c0 25.205444 7.6981506 45.036774 23.094513 59.493958c15.472565 14.3815 34.870422 21.572235 58.193604 21.572235c40.9299 0 69.96951 -20.323334 87.11893 -60.96997c23.551819 46.096497 37.61432 129.66052 42.1875 250.69208l15.434448 0c0 -89.92212 -3.5441895 -158.87762 -10.632629 -206.8664c-7.08844 -48.064423 -18.292664 -83.79108 -33.612793 -107.17993c0.4572754 -4.3144226 0.6859741 -11.467346 0.6859741 -21.45868c0 -11.1267395 -1.1433105 -25.432526 -3.4298706 -42.91739c-2.286621 -17.484863 -10.060974 -51.546295 -23.323181 -102.18428z" fill-rule="evenodd"/><path stroke="#000000" stroke-width="1.0" stroke-linejoin="round" stroke-linecap="butt" d="m503.83096 413.397c31.326202 0 55.907013 11.807953 73.7424 35.42386c-11.890259 41.32788 -36.699707 61.99179 -74.428375 61.99179c-14.176849 0 -26.638733 -4.541504 -37.38568 -13.624573c-10.746948 -9.083038 -16.120422 -21.004517 -16.120422 -35.764496c0 -14.305786 4.8399353 -25.886658 14.519806 -34.742645c9.7561035 -8.855957 22.980194 -13.283936 39.67227 -13.283936zm-61.05185 -173.71327c-39.78659 0 -71.64633 15.327637 -95.579285 45.982925c-23.85669 30.655273 -35.785065 74.36743 -35.785065 131.13647c0 59.039795 25.038116 118.30667 75.11435 177.80063l12.690552 -9.877808c-41.15854 -50.638 -61.737823 -106.61224 -61.737823 -167.92282c0 -38.830017 8.803345 -68.80408 26.410065 -89.92215c17.60672 -21.118103 41.501526 -31.677124 71.68448 -31.677124l123.1326 0c17.835388 26.794983 26.753052 56.201324 26.753052 88.219086c-18.521301 -17.257782 -44.131104 -25.886688 -76.829254 -25.886688c-27.667694 0 -48.932922 8.51535 -63.795746 25.546082c-14.862793 17.0307 -22.29419 39.170624 -22.29419 66.41977c0 25.205444 7.6981506 45.036774 23.094513 59.493958c15.472565 14.3815 34.870422 21.572235 58.193604 21.572235c40.9299 0 69.96951 -20.323334 87.11893 -60.96997c23.551819 46.096497 37.61432 129.66052 42.1875 250.69208l15.434448 0c0 -89.92212 -3.5441895 -158.87762 -10.632629 -206.8664c-7.08844 -48.064423 -18.292664 -83.79108 -33.612793 -107.17993c0.4572754 -4.3144226 0.6859741 -11.467346 0.6859741 -21.45868c0 -11.1267395 -1.1433105 -25.432526 -3.4298706 -42.91739c-2.286621 -17.484863 -10.060974 -51.546295 -23.323181 -102.18428z" fill-rule="evenodd"/></g></svg>