<svg version="1.1" viewBox="0.0 0.0 960.0 960.0" fill="none" stroke="none" stroke-linecap="square" stroke-miterlimit="10" xmlns:xlink="http://www.w3.org/1999/xlink" xmlns="http://www.w3.org/2000/svg"><clipPath id="p.0"><path d="m0 0l960.0 0l0 960.0l-960.0 0l0 -960.0z" clip-rule="nonzero"/></clipPath><g clip-path="url(#p.0)"><path fill="#000000" fill-opacity="0.0" d="m0 0l960.0 0l0 960.0l-960.0 0z" fill-rule="evenodd"/><path fill="#000000" d="m479.34882 302.58167c24.79535 0 45.490967 11.73819 62.086792 35.21457c16.661377 23.476349 24.992126 70.9223 24.992126 142.3378c0 71.020935 -8.3307495 118.368286 -24.992126 142.04193c-16.595825 23.673645 -37.094635 35.510437 -61.4964 35.510437c-24.401794 0 -44.93338 -11.771057 -61.594788 -35.31317c-16.595856 -23.60791 -24.893738 -71.020935 -24.893738 -142.2392c0 -71.21823 9.150635 -120.045135 27.451965 -146.48068c14.562347 -20.714447 34.044403 -31.071686 58.446167 -31.071686zm0.59039307 -44.092163c-31.486176 0 -57.62622 8.483063 -78.42023 25.449158c-20.728363 16.966125 -36.373047 41.100098 -46.93402 72.40192c-10.495392 31.236084 -15.743103 72.50055 -15.743103 123.79346c0 81.47681 14.267181 140.26636 42.801514 176.36871c23.811401 29.986633 56.57666 44.97992 98.29584 44.97992c31.682922 0 57.88861 -8.51593 78.617004 -25.54779c20.793945 -17.097656 36.405823 -41.264526 46.835632 -72.50055c10.42981 -31.30188 15.644653 -72.40192 15.644653 -123.30029c0 -43.00711 -3.2470093 -77.169495 -9.741028 -102.48715c-6.4940186 -25.383423 -15.447876 -46.886993 -26.861633 -64.51071c-11.413696 -17.689484 -25.877625 -31.203186 -43.391846 -40.541107c-17.51416 -9.403717 -37.881744 -14.10556 -61.102783 -14.10556z" fill-rule="evenodd"/></g></svg>