<svg version="1.1" viewBox="0.0 0.0 960.0 960.0" fill="none" stroke="none" stroke-linecap="square" stroke-miterlimit="10" xmlns:xlink="http://www.w3.org/1999/xlink" xmlns="http://www.w3.org/2000/svg"><clipPath id="p.0"><path d="m0 0l960.0 0l0 960.0l-960.0 0l0 -960.0z" clip-rule="nonzero"/></clipPath><g clip-path="url(#p.0)"><path fill="#000000" fill-opacity="0.0" d="m0 0l960.0 0l0 960.0l-960.0 0z" fill-rule="evenodd"/><path fill="#f1c232" d="m48.0 480.0l0 0c0 -238.587 193.413 -432.0 432.0 -432.0l0 0c114.57355 0 224.4544 45.514153 305.47015 126.52988c81.015686 81.01572 126.52985 190.8966 126.52985 305.47012l0 0c0 238.58704 -193.41296 432.0 -432.0 432.0l0 0c-238.587 0 -432.0 -193.41296 -432.0 -432.0z" fill-rule="evenodd"/><path fill="#ffe599" d="m96.0 480.0013l0 0c0 -212.07733 171.92267 -384.0 384.0 -384.0l0 0c101.84314 0 199.51501 40.45703 271.529 112.47099c72.01398 72.01396 112.47101 169.68587 112.47101 271.529l0 0c0 212.07736 -171.92267 384.00003 -384.0 384.00003l0 0c-212.07733 0 -384.0 -171.92267 -384.0 -384.00003z" fill-rule="evenodd"/><path fill="#f1c232" d="m464.49533 286.74887l0 137.60309c-21.449951 -14.204193 -36.504242 -27.553497 -45.162933 -40.047913c-8.658691 -12.560181 -12.988037 -26.041016 -12.988037 -40.442505c0 -15.387848 4.755707 -28.145325 14.267151 -38.2724c9.577026 -10.19281 24.204987 -16.4729 43.88382 -18.840271zm18.891693 216.61389c30.895813 21.306305 50.213867 37.779205 57.954224 49.41873c7.805908 11.639587 11.708923 23.969604 11.708923 36.990112c0 12.625916 -3.2142334 24.528503 -9.642639 35.707703c-6.362854 11.113464 -15.054321 20.12262 -26.074524 27.027466c-7.871521 4.73468 -19.18686 8.384399 -33.945984 10.949036l0 -160.09305zm-18.891693 -263.96118l0 27.224716c-33.45404 3.7483215 -59.20053 14.697388 -77.23947 32.847168c-17.973328 18.14981 -26.960022 39.357452 -26.960022 63.622955c0 21.50354 5.214905 39.751984 15.644684 54.7453c14.759155 21.109009 44.277405 45.37448 88.55481 72.79648l0 172.81763c-29.321472 -2.7619019 -51.361786 -11.343628 -66.12091 -25.745056c-14.759125 -14.401489 -23.221039 -35.115967 -25.385712 -62.14337l-12.988037 0l0 83.745544c19.285248 7.8912354 36.897827 13.546631 52.837708 16.966125c15.93985 3.4852905 33.158844 5.6224976 51.65695 6.411621l0 37.877808l18.891693 0l0 -37.877808c36.60266 -3.1564941 65.1698 -15.09198 85.701355 -35.806396c20.597229 -20.714478 30.895813 -44.68402 30.895813 -71.90875c0 -24.462769 -7.0515747 -44.914185 -21.154785 -61.354187c-14.037537 -16.505798 -45.851685 -42.119385 -95.44238 -76.8407l0 -150.3277c27.353607 2.7619324 47.852417 11.409393 61.4964 25.942383c13.709595 14.467224 21.843506 37.384644 24.401794 68.75223l11.512085 0l0 -88.480255c-32.076477 -12.231384 -50.9682 -19.037567 -56.67505 -20.418549c-11.020142 -2.7619019 -24.598572 -4.636078 -40.73523 -5.622467l0 -27.224716z" fill-rule="evenodd"/></g></svg>