<svg version="1.1" viewBox="0.0 0.0 960.0 960.0" fill="none" stroke="none" stroke-linecap="square" stroke-miterlimit="10" xmlns:xlink="http://www.w3.org/1999/xlink" xmlns="http://www.w3.org/2000/svg"><clipPath id="p.0"><path d="m0 0l960.0 0l0 960.0l-960.0 0l0 -960.0z" clip-rule="nonzero"/></clipPath><g clip-path="url(#p.0)"><path fill="#000000" fill-opacity="0.0" d="m0 0l960.0 0l0 960.0l-960.0 0z" fill-rule="evenodd"/><path fill="#ff0000" d="m301.4905 263.03806l147.59134 207.73627l-167.36859 226.08334l68.77756 0l108.62723 -151.2154c4.1325684 -5.918457 11.020172 -16.76886 20.662811 -32.55127c6.4940186 10.455811 12.791229 20.122559 18.891693 29.000183l108.922424 154.76648l70.84381 0l-163.82635 -229.33847l152.01904 -204.48114l-62.28351 0l-87.07892 115.11313c-13.184814 17.163391 -24.598541 33.63629 -34.24118 49.41873c-6.8876038 -12.42865 -18.498138 -30.183899 -34.831573 -53.265717l-78.518585 -111.26614z" fill-rule="evenodd"/></g></svg>